<?xml version="1.0" encoding="UTF-8" standalone="no"?>
<!DOCTYPE svg PUBLIC "-//W3C//DTD SVG 1.1//EN" "http://www.w3.org/Graphics/SVG/1.1/DTD/svg11.dtd">
<svg width="100%" height="100%" viewBox="0 0 181 215" version="1.1" xmlns="http://www.w3.org/2000/svg" xmlns:xlink="http://www.w3.org/1999/xlink" xml:space="preserve" xmlns:serif="http://www.serif.com/" style="fill-rule:evenodd;clip-rule:evenodd;stroke-linejoin:round;stroke-miterlimit:2;">
    <g transform="matrix(1,0,0,1,-17.1118,-0.000374983)">
        <path d="M196.926,55.171C196.816,49.386 196.711,43.921 196.711,38.634C196.711,34.492 193.354,31.134 189.211,31.134C157.136,31.134 132.715,21.916 112.359,2.124C109.447,-0.708 104.813,-0.707 101.902,2.124C81.548,21.916 57.131,31.134 25.058,31.134C20.916,31.134 17.558,34.492 17.558,38.634C17.558,43.922 17.454,49.389 17.343,55.175C16.315,109.011 14.907,182.742 104.674,213.857C105.47,214.133 106.3,214.271 107.13,214.271C107.96,214.271 108.791,214.133 109.586,213.857C199.36,182.741 197.954,109.008 196.926,55.171ZM107.131,198.812C30.144,170.845 31.308,109.58 32.341,55.461C32.403,52.213 32.463,49.065 32.505,45.979C62.545,44.711 86.567,35.608 107.131,17.694C127.697,35.608 151.723,44.712 181.765,45.979C181.807,49.064 181.867,52.21 181.929,55.456C182.961,109.577 184.124,170.844 107.131,198.812Z"/>
        <g transform="matrix(0.229427,0,0,0.229427,54.936,52.6641)">
            <g>
                <path d="M359.078,172.256L352.298,172.256L352.298,122.653C352.299,55.022 297.276,0 229.646,0C162.016,0 106.992,55.022 106.992,122.653C106.992,130.937 113.708,137.653 121.992,137.653L195.985,137.653C204.269,137.653 210.985,130.937 210.985,122.653C210.985,112.364 219.356,103.993 229.645,103.993C239.935,103.993 248.306,112.364 248.306,122.653L248.306,172.256L100.214,172.256C82.092,172.256 67.349,186.999 67.349,205.121L67.349,426.427C67.349,444.549 82.092,459.292 100.214,459.292L359.078,459.292C377.2,459.292 391.942,444.549 391.942,426.427L391.942,205.121C391.943,186.999 377.2,172.256 359.078,172.256ZM229.646,73.993C208.047,73.993 189.689,88.14 183.351,107.653L138.206,107.653C145.394,63.669 183.661,30 229.646,30C280.735,30 322.299,71.564 322.299,122.653L322.299,169.861L278.307,169.861L278.307,122.653C278.307,95.822 256.477,73.993 229.646,73.993ZM361.943,426.426C361.943,428.006 360.658,429.291 359.079,429.291L100.214,429.291C98.634,429.291 97.349,428.006 97.349,426.426L97.349,205.121C97.349,203.541 98.634,202.256 100.214,202.256L359.078,202.256C360.657,202.256 361.942,203.541 361.942,205.121L361.942,426.426L361.943,426.426Z" style="fill-rule:nonzero;"/>
            </g>
        </g>
    </g>
</svg>
