<?xml version="1.0" encoding="UTF-8" standalone="no"?>
<!DOCTYPE svg PUBLIC "-//W3C//DTD SVG 1.1//EN" "http://www.w3.org/Graphics/SVG/1.1/DTD/svg11.dtd">
<svg width="100%" height="100%" viewBox="0 0 253 242" version="1.1" xmlns="http://www.w3.org/2000/svg" xmlns:xlink="http://www.w3.org/1999/xlink" xml:space="preserve" xmlns:serif="http://www.serif.com/" style="fill-rule:evenodd;clip-rule:evenodd;stroke-linejoin:round;stroke-miterlimit:2;">
    <g transform="matrix(1,0,0,1,-20.6,-203.6)">
        <path d="M197.8,271.4L197.8,248.7C126.2,248.7 67.9,304.2 67.9,372.4L91.8,372.4C91.8,316.6 139.4,271.4 197.8,271.4M197.8,226.4L197.8,203.6C100.1,203.6 20.6,279.3 20.6,372.3L44.5,372.3C44.6,291.9 113.3,226.4 197.8,226.4M239.017,411.7C222.295,430.84 174.369,435.097 156.271,411.742C131.825,380.194 139.449,349.999 160.31,329.971C180.683,310.412 213.923,307.063 238.156,332.187C261.261,356.141 261.811,385.61 239.017,411.7ZM196.8,297C151.7,297 122,332.1 122,371.4C122,414.6 157.7,444.8 196.8,444.8C235.9,444.8 273.6,412.6 273.6,370.4C273.6,329.1 235.9,297 196.8,297Z" style="fill-rule:nonzero;"/>
        <g transform="matrix(0.220222,0,0,0.174817,146.667,328.6)">
            <g>
                <path d="M359.078,172.256L352.298,172.256L352.298,122.653C352.299,55.022 297.276,0 229.646,0C162.016,0 106.992,55.022 106.992,122.653C106.992,130.937 113.708,137.653 121.992,137.653L195.985,137.653C204.269,137.653 210.985,130.937 210.985,122.653C210.985,112.364 219.356,103.993 229.645,103.993C239.935,103.993 248.306,112.364 248.306,122.653L248.306,172.256L100.214,172.256C82.092,172.256 67.349,186.999 67.349,205.121L67.349,426.427C67.349,444.549 82.092,459.292 100.214,459.292L359.078,459.292C377.2,459.292 391.942,444.549 391.942,426.427L391.942,205.121C391.943,186.999 377.2,172.256 359.078,172.256ZM229.646,73.993C208.047,73.993 189.689,88.14 183.351,107.653L138.206,107.653C145.394,63.669 183.661,30 229.646,30C280.735,30 322.299,71.564 322.299,122.653L322.299,169.861L278.307,169.861L278.307,122.653C278.307,95.822 256.477,73.993 229.646,73.993ZM361.943,426.426C361.943,428.006 360.658,429.291 359.079,429.291L100.214,429.291C98.634,429.291 97.349,428.006 97.349,426.426L97.349,205.121C97.349,203.541 98.634,202.256 100.214,202.256L359.078,202.256C360.657,202.256 361.942,203.541 361.942,205.121L361.942,426.426L361.943,426.426Z" style="fill-rule:nonzero;stroke:black;stroke-width:13.89px;"/>
            </g>
        </g>
    </g>
</svg>
